<?xml version="1.0" encoding="UTF-8"?>
<svg xmlns="http://www.w3.org/2000/svg"
    width="96"
    height="96"
    viewBox="0 0 96 96"
    version="1.1">
    <g id="surface1">
        <path
            style=" stroke:none;fill-rule:nonzero;fill:rgb(100%,100%,100%);fill-opacity:1;"
            d="M 15.359375 23.039062 C 10.089844 23.039062 5.761719 27.367188 5.761719 32.640625 L 5.761719 63.359375 C 5.761719 68.632812 10.089844 72.960938 15.359375 72.960938 L 76.800781 72.960938 C 82.070312 72.960938 86.398438 68.632812 86.398438 63.359375 L 86.398438 57.601562 L 90.238281 57.601562 C 91.300781 57.601562 92.160156 56.742188 92.160156 55.679688 L 92.160156 40.320312 C 92.160156 39.257812 91.300781 38.398438 90.238281 38.398438 L 86.398438 38.398438 L 86.398438 32.640625 C 86.398438 27.367188 82.070312 23.039062 76.800781 23.039062 Z M 15.359375 26.878906 L 76.800781 26.878906 C 79.976562 26.878906 82.558594 29.464844 82.558594 32.640625 L 82.558594 40.320312 C 82.558594 41.378906 83.417969 42.238281 84.480469 42.238281 L 88.320312 42.238281 L 88.320312 53.761719 L 84.480469 53.761719 C 83.417969 53.761719 82.558594 54.621094 82.558594 55.679688 L 82.558594 63.359375 C 82.558594 66.535156 79.976562 69.121094 76.800781 69.121094 L 15.359375 69.121094 C 12.183594 69.121094 9.601562 66.535156 9.601562 63.359375 L 9.601562 32.640625 C 9.601562 29.464844 12.183594 26.878906 15.359375 26.878906 Z M 15.359375 26.878906 " />
    </g>
</svg>
